<?xml version="1.0" standalone="no"?>
<!DOCTYPE svg PUBLIC "-//W3C//DTD SVG 20010904//EN"
 "http://www.w3.org/TR/2001/REC-SVG-20010904/DTD/svg10.dtd">
<svg version="1.0" xmlns="http://www.w3.org/2000/svg"
 width="816.000000pt" height="816.000000pt" viewBox="0 0 816.000000 816.000000"
 preserveAspectRatio="xMidYMid meet">
<metadata>
Created by potrace 1.11, written by Peter Selinger 2001-2013
</metadata>
<g transform="translate(0.000000,816.000000) scale(0.100000,-0.100000)"
fill="#000000" stroke="none">
<path d="M0 4080 l0 -4080 790 0 c435 0 790 2 790 5 0 3 -39 84 -87 180 -77
153 -86 178 -75 195 6 11 12 33 12 50 0 41 -39 59 -149 70 -127 14 -206 42
-313 112 -141 93 -211 123 -345 148 -65 11 -132 26 -150 31 -95 30 -140 194
-59 215 50 12 290 -36 361 -74 18 -9 48 -37 66 -61 46 -59 117 -97 209 -112
83 -13 203 -6 273 15 l45 13 166 -391 165 -391 69 -3 70 -3 119 165 c89 125
120 161 125 148 4 -9 28 -83 54 -164 l46 -148 153 0 153 0 11 31 c10 28 14 31
43 26 96 -17 209 -28 307 -30 81 -1 111 -5 111 -14 0 -10 24 -13 85 -13 84 0
85 0 85 25 0 16 6 25 15 25 11 0 14 -7 9 -25 l-6 -25 902 0 902 0 -6 37 c-12
66 -75 316 -95 377 l-19 58 44 42 c29 28 44 37 44 27 0 -9 11 -133 25 -276 14
-143 25 -261 25 -262 0 -2 34 -3 75 -3 66 0 75 2 75 18 0 16 13 20 92 28 76 8
103 7 158 -7 96 -25 260 -39 446 -39 l162 0 47 148 c25 81 49 155 53 164 5 12
36 -24 125 -148 l119 -165 69 3 70 3 166 391 165 392 56 -16 c39 -11 94 -16
172 -16 168 2 233 31 325 146 34 41 179 86 341 104 55 6 64 4 84 -16 19 -19
21 -29 16 -69 -13 -95 -54 -124 -226 -156 -149 -29 -241 -65 -344 -139 -114
-81 -198 -113 -332 -126 -114 -10 -154 -29 -154 -70 0 -17 6 -39 12 -50 11
-17 2 -42 -75 -195 -48 -96 -87 -177 -87 -180 0 -3 356 -5 790 -5 l790 0 0
4080 0 4080 -4080 0 -4080 0 0 -4080z m7200 3875 c36 -19 52 -47 52 -93 0 -70
-86 -118 -151 -83 -53 29 -64 117 -18 158 39 36 73 41 117 18z m-4017 -825 c3
-13 -1 -21 -14 -25 -25 -8 -24 -31 1 -38 23 -6 27 -37 5 -37 -11 0 -15 -12
-15 -45 0 -41 -2 -45 -25 -45 -27 0 -31 12 -38 132 -4 62 -3 67 17 71 48 10
64 7 69 -13z m112 -12 c17 -106 24 -162 19 -169 -10 -17 -45 -9 -54 14 l-9 22
-7 -22 c-9 -31 -54 -32 -54 -2 0 24 19 158 25 177 3 6 20 12 39 12 32 0 36 -3
41 -32z m128 21 c29 -16 37 -28 37 -61 0 -25 -4 -28 -31 -28 -30 0 -31 2 -25
30 3 17 1 30 -3 30 -5 0 -13 -29 -16 -65 -8 -68 -1 -98 11 -51 9 37 54 38 54
1 0 -29 -32 -65 -58 -65 -10 0 -28 7 -41 16 -21 15 -23 22 -19 91 3 64 7 78
27 94 27 22 35 23 64 8z m151 -30 c13 -12 -2 -42 -18 -36 -8 3 -16 -2 -19 -14
-3 -12 0 -19 9 -19 8 0 14 -9 14 -20 0 -13 -7 -20 -20 -20 -11 0 -20 -7 -20
-15 0 -19 37 -58 42 -44 7 20 36 -2 31 -22 -4 -15 -11 -19 -27 -15 -11 3 -38
9 -59 12 -20 4 -40 10 -43 15 -2 5 3 51 12 104 l17 95 36 -6 c20 -4 40 -10 45
-15z m-582 -20 c17 -22 18 -32 9 -65 -6 -22 -24 -55 -40 -74 l-29 -35 -48 25
c-47 24 -84 69 -84 103 0 29 39 60 69 54 15 -3 34 1 46 9 27 20 54 14 77 -17z
m746 -25 c13 -9 22 -26 22 -42 0 -39 -34 -123 -56 -139 -16 -12 -17 -15 -4
-23 8 -5 11 -12 8 -16 -12 -11 -59 6 -65 24 -4 9 -13 23 -20 30 -17 18 -17 28
7 98 28 82 60 102 108 68z m-1015 -128 c21 -48 37 -89 35 -91 -1 -1 -12 -5
-24 -9 -18 -6 -26 4 -62 84 -37 81 -39 91 -24 100 9 5 21 8 27 6 5 -1 27 -42
48 -90z m-1479 -187 c64 -56 56 -145 -16 -189 -93 -57 -206 29 -177 133 24 86
126 116 193 56z m2411 -880 c68 -35 95 -77 95 -148 -1 -100 -55 -178 -139
-201 -22 -6 -178 -12 -348 -14 -428 -6 -743 -34 -1007 -90 l-108 -23 6 61 c8
79 55 329 65 344 4 7 72 23 152 36 287 49 524 64 934 62 l301 -1 49 -26z m412
-5 c25 -4 33 -11 37 -32 11 -50 24 -166 32 -266 l7 -99 -64 6 c-35 4 -106 10
-156 13 -51 4 -93 8 -93 11 0 2 12 27 27 56 35 67 45 219 19 281 -9 21 -16 41
-16 43 0 5 153 -4 207 -13z m98 -1039 c77 -103 251 -283 335 -346 36 -27 124
-81 197 -121 72 -40 129 -76 125 -79 -4 -3 -63 -21 -132 -39 -136 -36 -150
-43 -150 -71 0 -11 -6 -19 -14 -19 -8 0 -38 -21 -67 -47 l-52 -48 -276 -3
c-152 -2 -295 -1 -319 3 -31 5 -56 18 -92 50 -48 42 -99 65 -148 65 -13 0 -35
8 -48 19 -13 10 -55 27 -94 37 -38 10 -70 21 -70 24 0 4 19 20 43 37 104 75
248 238 363 410 63 95 178 312 202 382 l12 34 62 -104 c35 -57 90 -140 123
-184z m-917 -790 c166 -6 335 -30 371 -51 54 -32 56 -42 59 -278 5 -292 -19
-500 -70 -619 -25 -58 -93 -120 -151 -137 -45 -14 -777 -27 -824 -15 l-25 6 7
272 c3 150 11 308 16 351 24 190 119 336 290 446 60 38 64 40 128 35 36 -2
126 -7 199 -10z m2039 -47 c35 -34 82 -90 105 -123 l40 -60 -60 -6 c-97 -9
-159 -70 -202 -200 -18 -53 -21 -79 -17 -148 4 -72 10 -95 43 -160 47 -91 97
-131 172 -139 56 -5 98 12 149 61 18 17 35 29 37 26 2 -2 6 -71 7 -154 l3
-150 -89 -6 c-230 -17 -657 -3 -746 24 -64 19 -111 58 -142 115 -52 95 -87
354 -87 642 0 266 14 283 240 311 79 9 237 19 443 27 35 2 46 -5 104 -60z
m-1006 -183 c66 -47 81 -85 90 -239 9 -154 33 -321 55 -398 52 -174 155 -273
330 -318 70 -18 111 -20 446 -20 l368 0 0 -92 c0 -51 3 -169 6 -263 l7 -170
-74 -95 c-161 -208 -367 -379 -595 -493 -225 -113 -396 -182 -559 -225 -90
-24 -117 -27 -275 -27 -158 0 -185 3 -275 27 -163 43 -330 110 -546 218 -250
126 -438 281 -617 511 l-52 67 0 124 c0 69 3 192 6 274 l7 149 126 -7 c153 -9
569 -1 666 13 121 17 226 78 286 166 71 103 112 263 129 508 13 176 23 222 57
260 51 55 94 66 240 63 128 -3 132 -4 174 -33z m-3173 -61 c63 -31 107 -88
123 -159 22 -98 -32 -209 -123 -256 -156 -80 -340 33 -340 209 0 176 181 285
340 206z m4402 -174 c0 -15 -7 -20 -27 -20 -25 0 -26 0 -8 20 10 11 22 20 27
20 4 0 8 -9 8 -20z m-4895 -409 c94 -68 193 -142 222 -163 l52 -38 -41 -59
c-40 -59 -41 -60 -24 -85 9 -14 25 -26 35 -26 18 0 58 38 94 90 l16 22 105
-77 c58 -42 108 -81 111 -85 3 -5 -8 -31 -25 -58 -16 -27 -30 -61 -30 -74 0
-30 22 -51 47 -46 15 3 57 51 88 101 9 14 26 4 124 -67 62 -47 118 -89 123
-94 5 -5 -5 -30 -27 -61 -38 -58 -40 -63 -25 -92 23 -42 74 -17 121 58 l20 32
112 -81 c62 -44 116 -84 121 -89 6 -5 -1 -30 -17 -61 -32 -63 -33 -70 -8 -92
28 -25 54 -13 88 40 l29 44 112 -80 c61 -45 114 -85 117 -90 3 -4 -9 -31 -26
-58 -32 -53 -35 -78 -8 -95 26 -16 62 0 92 43 16 22 32 40 36 40 5 0 63 -41
130 -90 l123 -91 -18 -27 c-9 -15 -23 -36 -31 -47 -19 -29 -16 -53 11 -70 31
-21 51 -11 87 42 21 30 34 41 42 35 7 -5 60 -44 120 -86 59 -43 107 -80 107
-83 0 -13 -163 -232 -170 -228 -4 2 -31 20 -59 40 -56 37 -79 43 -99 23 -30
-30 -6 -71 75 -127 l32 -22 -81 -112 c-44 -62 -84 -116 -89 -121 -4 -5 -30 5
-58 23 -56 34 -92 39 -111 16 -22 -26 -3 -61 50 -94 27 -17 50 -33 50 -37 0
-11 -165 -234 -173 -234 -5 0 -27 13 -50 29 -23 15 -51 31 -63 35 -22 7 -52
-11 -54 -34 -5 -36 -4 -37 103 -111 7 -5 -112 -185 -154 -233 -4 -4 -36 8 -71
28 -75 42 -91 44 -112 15 -21 -31 -4 -59 60 -98 30 -18 54 -34 54 -36 0 -8
-122 -176 -125 -173 -4 4 -309 725 -317 748 -7 21 37 134 78 203 24 39 36 72
38 103 4 54 19 75 34 48 5 -11 45 -102 87 -204 43 -102 84 -193 93 -203 10
-11 27 -17 45 -15 27 3 53 37 263 343 255 370 258 378 207 427 -63 59 -1047
748 -1069 748 -29 0 -54 -25 -54 -54 0 -13 57 -157 126 -320 69 -164 124 -301
122 -306 -2 -4 -49 -47 -106 -95 -65 -55 -107 -84 -113 -78 -9 9 -789 1846
-789 1858 0 9 8 3 195 -134z m6736 -792 c-215 -507 -395 -927 -400 -932 -10
-10 -204 145 -215 171 -3 7 50 146 119 309 69 163 125 306 125 319 0 29 -25
54 -54 54 -22 0 -1005 -688 -1068 -748 -53 -49 -49 -57 206 -427 210 -306 236
-340 263 -343 18 -2 35 4 45 15 9 10 50 101 93 203 42 102 82 193 87 204 15
27 30 6 34 -49 2 -30 13 -62 32 -93 36 -56 84 -169 84 -197 0 -16 -305 -751
-316 -763 -2 -1 -32 36 -66 84 -70 96 -71 86 13 135 49 30 62 57 40 88 -20 29
-40 26 -108 -14 -32 -20 -62 -34 -66 -33 -9 3 -172 229 -167 232 82 54 108 80
108 106 0 33 -28 54 -57 43 -10 -3 -37 -19 -60 -35 -23 -15 -46 -28 -51 -28
-8 0 -172 223 -172 234 0 4 23 20 50 37 53 33 72 68 50 94 -19 23 -55 18 -111
-16 -28 -18 -54 -28 -58 -23 -5 5 -45 59 -89 121 l-81 112 32 22 c81 56 105
97 75 127 -19 19 -43 14 -94 -21 -27 -18 -54 -36 -60 -40 -7 -4 -44 39 -93
107 -44 62 -81 116 -81 119 0 3 48 40 108 83 59 42 112 81 119 86 8 6 21 -5
42 -35 36 -53 56 -63 87 -42 27 17 30 41 11 70 -8 11 -22 32 -31 47 l-18 27
123 91 c67 49 125 90 130 90 4 0 20 -18 36 -40 30 -43 66 -59 92 -43 27 17 24
42 -8 95 -17 27 -29 54 -26 58 3 5 56 45 117 90 l112 80 29 -44 c34 -53 60
-65 88 -40 25 22 24 31 -6 88 -14 26 -25 50 -25 55 0 4 19 21 43 37 23 17 77
56 119 87 l77 57 20 -33 c47 -75 98 -100 121 -58 15 29 13 34 -25 92 -20 29
-32 56 -28 60 4 4 60 46 123 93 98 73 116 83 125 69 31 -50 73 -98 88 -101 25
-5 47 16 47 46 0 13 -14 47 -30 74 -17 27 -28 53 -25 58 3 4 53 43 111 85
l105 77 16 -22 c36 -52 76 -90 94 -90 10 0 26 12 35 26 17 25 16 26 -24 85
l-41 60 91 67 c51 37 155 113 232 169 77 57 141 101 143 99 3 -2 -171 -419
-386 -927z m-6524 -311 c14 -18 263 -611 263 -626 0 -7 -6 -12 -14 -12 -17 0
-323 380 -353 439 -38 74 -25 157 29 195 27 19 62 21 75 4z m6581 -4 c54 -38
67 -121 29 -195 -30 -59 -336 -439 -353 -439 -8 0 -14 6 -14 12 0 15 249 608
263 626 13 17 48 15 75 -4z m-5588 -560 c175 -172 194 -231 125 -385 -21 -46
-54 -108 -74 -137 -29 -45 -36 -51 -42 -35 -4 10 -35 83 -68 163 -34 80 -61
152 -61 160 0 9 13 31 28 50 32 39 52 73 52 89 0 14 -37 51 -50 51 -6 0 -43
-33 -83 -73 -143 -144 -268 -171 -333 -72 -14 21 -14 30 -4 55 7 16 22 36 34
44 12 8 60 47 107 86 99 85 147 109 213 110 49 0 49 0 156 -106z m4765 87 c22
-10 85 -57 140 -105 55 -47 103 -86 106 -86 4 0 12 -13 19 -30 10 -25 10 -34
-4 -55 -65 -99 -190 -71 -333 72 -40 40 -77 73 -83 73 -13 0 -50 -37 -50 -51
0 -16 20 -50 52 -89 15 -19 28 -41 28 -50 0 -8 -27 -80 -61 -160 -33 -80 -64
-153 -68 -163 -18 -48 -153 220 -153 303 0 72 39 133 162 254 107 106 107 106
156 106 27 0 67 -9 89 -19z m-3194 -103 l78 -33 21 -60 c64 -175 171 -310 293
-370 40 -19 94 -39 120 -44 26 -5 50 -11 53 -14 8 -8 -93 -76 -159 -106 -137
-63 -281 -77 -363 -36 -139 69 -308 330 -345 533 -17 88 6 118 111 146 81 22
106 19 191 -16z m1484 6 c54 -12 125 -54 137 -80 15 -32 -2 -122 -41 -214 -73
-175 -187 -317 -297 -371 -61 -30 -69 -32 -143 -26 -108 8 -230 50 -318 110
-40 27 -73 50 -73 52 0 2 26 9 58 15 96 20 175 65 250 144 65 69 134 183 161
268 10 29 20 39 49 49 20 7 64 25 97 41 33 15 67 26 75 23 8 -2 29 -7 45 -11z
m-965 -169 c165 -26 335 -14 507 35 40 11 78 20 84 20 6 0 -7 -32 -28 -71 -45
-85 -130 -175 -196 -207 -119 -59 -337 -58 -454 2 -86 43 -180 154 -227 267
l-15 35 117 -33 c64 -19 160 -41 212 -48z m-2696 -38 c38 -87 116 -137 215
-137 22 0 41 -3 41 -7 -1 -5 -12 -21 -26 -38 -13 -16 -33 -59 -44 -95 -33
-111 -89 -144 -245 -145 -118 0 -175 17 -220 66 -19 22 -35 46 -35 55 0 9 15
43 34 77 19 34 37 80 41 102 11 67 25 101 49 124 29 27 89 50 134 51 30 0 34
-4 56 -53z m5888 26 c46 -27 67 -61 79 -128 6 -33 26 -88 45 -122 19 -34 34
-68 34 -77 0 -24 -59 -85 -99 -103 -47 -20 -219 -23 -284 -4 -59 17 -102 64
-112 121 -4 22 -22 64 -41 91 -19 28 -34 53 -34 55 0 2 19 4 41 4 99 0 177 50
216 138 l24 55 50 -6 c28 -4 65 -14 81 -24z m-4124 -354 c92 -154 103 -176
126 -274 18 -75 24 -119 19 -148 l-6 -41 -43 47 c-23 26 -64 79 -90 119 -47
71 -155 280 -169 326 -7 25 44 158 56 144 4 -4 52 -82 107 -173z m2337 22 l68
-154 -6 -96 c-6 -93 -25 -169 -49 -198 -20 -25 -84 -52 -141 -61 -95 -15 -147
-68 -147 -150 0 -52 11 -75 58 -124 l36 -38 -51 0 -51 0 -7 48 c-3 26 -17 116
-31 200 -25 154 -25 238 -2 302 9 26 250 431 254 427 1 -1 32 -71 69 -156z
m-1208 -101 c95 -84 235 -144 385 -166 41 -5 47 -9 44 -28 l-3 -21 -471 0
c-462 -1 -471 0 -476 19 -3 11 -4 21 -2 23 1 1 36 9 77 17 134 26 282 99 353
175 17 17 32 31 34 31 2 0 29 -22 59 -50z m-621 -243 c41 -84 44 -95 33 -125
-13 -38 -35 -52 -82 -52 -22 0 -41 8 -54 23 -26 27 -96 167 -89 175 13 12 122
71 134 71 7 1 33 -41 58 -92z m1279 56 c36 -21 65 -42 65 -47 0 -14 -71 -129
-98 -158 -50 -54 -142 -23 -142 48 0 35 83 194 102 194 5 0 38 -17 73 -37z
m-1516 -195 c44 -31 -11 -84 -59 -58 -18 10 -20 18 -14 73 5 50 2 71 -15 110
-34 80 -23 68 24 -25 25 -47 53 -93 64 -100z"/>
<path d="M3252 7050 c0 -19 2 -27 5 -17 2 9 2 25 0 35 -3 9 -5 1 -5 -18z"/>
<path d="M3681 6978 c-11 -34 -19 -63 -17 -66 6 -5 36 64 43 101 10 48 -4 29
-26 -35z"/>
<path d="M3071 5743 c-24 -30 -20 -58 11 -85 41 -36 98 -9 98 46 0 64 -70 90
-109 39z m69 -18 c17 -20 5 -45 -20 -45 -11 0 -23 7 -26 15 -6 15 11 45 26 45
4 0 13 -7 20 -15z"/>
<path d="M3487 5749 c-18 -13 -27 -30 -27 -49 0 -36 43 -73 74 -64 27 7 56 41
56 64 0 23 -29 57 -56 64 -13 4 -30 -1 -47 -15z m58 -49 c0 -16 -6 -26 -18
-28 -19 -4 -32 20 -23 44 9 25 41 13 41 -16z"/>
<path d="M2677 5732 c-23 -25 -21 -68 3 -92 27 -27 56 -25 86 6 20 19 24 31
19 52 -12 51 -75 71 -108 34z m63 -27 c16 -20 5 -45 -20 -45 -14 0 -20 7 -20
23 0 38 18 48 40 22z"/>
<path d="M2295 5680 c-36 -40 -7 -110 45 -110 10 0 28 8 40 18 44 36 17 112
-40 112 -15 0 -35 -9 -45 -20z m65 -25 c17 -20 5 -45 -20 -45 -11 0 -23 7 -26
15 -6 15 11 45 26 45 4 0 13 -7 20 -15z"/>
<path d="M3944 5724 c-22 -33 -10 -72 28 -93 25 -14 29 -14 55 5 55 41 34 114
-33 114 -25 0 -38 -7 -50 -26z m71 -34 c0 -16 -6 -26 -18 -28 -19 -4 -32 20
-23 44 9 25 41 13 41 -16z"/>
<path d="M2849 3781 c-93 -51 -160 -210 -144 -344 9 -85 39 -158 87 -212 88
-100 195 -102 282 -5 65 73 105 196 91 286 l-6 43 -77 3 -77 3 63 49 62 49
-24 41 c-13 23 -40 54 -60 71 -48 38 -141 46 -197 16z"/>
<path d="M3962 3488 c-7 -7 -12 -29 -12 -50 0 -49 -20 -97 -66 -160 -82 -111
-106 -236 -63 -325 27 -55 114 -135 173 -157 45 -17 48 -17 67 0 31 28 20 54
-36 87 -142 82 -169 173 -88 303 96 156 118 224 94 287 -11 29 -47 37 -69 15z"/>
<path d="M4211 2934 c-44 -31 -17 -84 42 -84 55 0 63 65 11 86 -26 11 -35 10
-53 -2z"/>
<path d="M4674 2577 c-221 -145 -388 -226 -574 -277 -123 -35 -296 -35 -397
-1 -70 24 -73 24 -93 6 -11 -10 -20 -24 -20 -32 0 -22 79 -173 136 -259 136
-206 290 -283 448 -223 142 53 367 273 529 518 75 113 177 295 177 315 0 20
-28 46 -48 46 -9 0 -80 -42 -158 -93z m-5 -144 c-86 -143 -196 -279 -324 -401
-155 -148 -252 -189 -350 -148 -66 28 -163 133 -229 248 l-27 47 103 -6 c124
-7 229 11 380 63 112 39 294 127 398 192 36 22 66 41 68 41 2 1 -7 -16 -19
-36z"/>
<path d="M1048 1149 c-18 -10 -23 -44 -12 -73 6 -16 150 -76 182 -76 29 0 55
35 48 64 -5 20 -21 30 -84 54 -106 41 -115 43 -134 31z"/>
<path d="M6996 1126 c-88 -34 -106 -47 -106 -77 0 -20 31 -49 54 -49 31 0 174
60 180 76 12 31 6 63 -13 74 -24 12 -10 15 -115 -24z"/>
<path d="M3416 557 c-38 -27 2 -95 42 -71 24 16 28 55 6 71 -10 7 -21 13 -24
13 -3 0 -14 -6 -24 -13z"/>
<path d="M4646 554 c-29 -29 -13 -74 25 -74 19 0 49 25 49 41 0 12 -37 49 -49
49 -5 0 -17 -7 -25 -16z"/>
</g>
</svg>
